<?xml version="1.0" encoding="UTF-8"?>
<svg width="250px" height="250px" viewBox="0 0 250 250" version="1.1" xmlns="http://www.w3.org/2000/svg" xmlns:xlink="http://www.w3.org/1999/xlink">
    <!-- Generator: Sketch 52.1 (67048) - http://www.bohemiancoding.com/sketch -->
    <title>Logo</title>
    <desc>Created with Sketch.</desc>
    <g id="Logo" stroke="none" stroke-width="1" fill="none" fill-rule="evenodd">
        <g id="grinning-cat" transform="translate(13.000000, 13.000000)">
            <g id="Group" fill="#FFA000">
                <path d="M221.698142,2.86865185 C220.28423,1.57972272 218.424156,0.897094052 216.51548,0.966666667 C185.078953,4.14293932 155.84126,18.604169 134.178019,41.6915259 C132.900372,43.094475 132.24675,44.9590921 132.36765,46.8560454 C132.48855,48.7529987 133.373553,50.5188015 134.818885,51.7468741 L207.821981,113.980948 C209.166595,115.15034 210.877577,115.808643 212.656347,115.840978 C213.550243,115.844652 214.434313,115.653802 215.247678,115.28157 C217.681762,114.255342 219.263817,111.862154 219.260062,109.212 C223.843653,64.7530963 223.899381,8.51866667 223.899381,7.94527407 C223.892695,6.02112379 223.096446,4.18476695 221.698142,2.86865185 Z" id="Path"></path>
                <path d="M7.36996904,0.966666667 C5.46547213,0.923012358 3.61467801,1.60223524 2.1873065,2.86865185 C0.790623293,4.19051518 -0.000764730111,6.03234472 9.51904541e-15,7.95925926 C9.51904541e-15,8.51866667 9.51904541e-15,64.7810667 4.59752322,108.512741 L4.59752322,108.652593 C4.59654614,111.379218 6.17451051,113.857739 8.63995245,115.002068 C11.1053944,116.146396 14.0086057,115.747802 16.0773994,113.980948 L89.0804954,51.7468741 C90.5195471,50.5171103 91.3990719,48.7531839 91.5172871,46.8597791 C91.6355023,44.9663744 90.9822606,43.1060157 89.7074303,41.7055111 C68.0471031,18.6119665 38.8087467,4.14544264 7.36996904,0.966666667 Z" id="Path"></path>
            </g>
            <path d="M111.499971,36 C52.0987487,36 0.000727094693,81.559214 0.000727094693,133.497554 L0.000727094693,147.063642 C-0.0637954247,158.833434 4.16797286,170.222959 11.9032714,179.098552 C37.1218607,207.647515 73.3935974,224 111.499971,224 C149.606344,224 185.878081,207.647515 211.09667,179.098552 C218.834208,170.224288 223.066302,158.833887 222.999214,147.063642 L222.999214,133.497554 C222.999214,81.559214 170.901193,36 111.499971,36 Z" id="Path" fill="#FFCA28"></path>
            <path d="M85,37.5720924 L112.179041,70 L140,37.7304881 C121.969966,32.8107215 103.055258,32.7562486 85,37.5720924 Z" id="Path" fill="#FFA000"></path>
            <circle id="Oval" fill="#6D4C41" cx="69" cy="113" r="14"></circle>
            <circle id="Oval" fill="#6D4C41" cx="154" cy="113" r="14"></circle>
            <path d="M150.490987,157.570761 C149.177664,155.944991 147.186943,154.998804 145.082259,155.000001 L75.9169476,155.000001 C73.817635,154.999895 71.8318922,155.942307 70.5191502,157.561737 C69.2064082,159.181167 68.708763,161.302323 69.1664132,163.327624 C73.5233998,182.430907 90.6893964,196 110.499603,196 C130.30981,196 147.475807,182.430907 151.832794,163.327624 C152.290557,161.30682 151.797127,159.18982 150.490987,157.570761 Z" id="Path" fill="#F44336"></path>
        </g>
    </g>
</svg>