<?xml version="1.0" encoding="UTF-8"?>
<svg width="166px" height="50px" viewBox="0 0 166 50" version="1.1" xmlns="http://www.w3.org/2000/svg" xmlns:xlink="http://www.w3.org/1999/xlink">
    <!-- Generator: Sketch 52.1 (67048) - http://www.bohemiancoding.com/sketch -->
    <title>LogoWebsite</title>
    <desc>Created with Sketch.</desc>
    <g id="LogoWebsite" stroke="none" stroke-width="1" fill="none" fill-rule="evenodd">
        <text id="Catz" font-family="SourceSansPro-Black, Source Sans Pro" font-size="35" font-weight="700" fill="#1F1F24">
            <tspan x="76.07" y="37">Catz</tspan>
        </text>
        <g id="grinning-cat" transform="translate(20.000000, 2.000000)">
            <g id="Group" fill="#FFA000">
                <path d="M45.5272971,0.593514176 C45.2369401,0.326839183 44.8549606,0.185605666 44.4630003,0.2 C38.007285,0.857159859 32.0031159,3.84913841 27.5544145,8.62583295 C27.2920406,8.91609827 27.1578146,9.30188113 27.1826424,9.69435423 C27.2074701,10.0868273 27.3892118,10.4521658 27.6860211,10.7062498 L42.6777283,23.5822651 C42.9538543,23.8242083 43.3052167,23.9604089 43.6704998,23.9670989 C43.8540678,23.967859 44.0356179,23.9283728 44.2026482,23.8513594 C44.7025048,23.6390363 45.027391,23.1438939 45.0266199,22.5955862 C45.9678931,13.3971923 45.9793371,1.76248276 45.9793371,1.64384981 C45.9779642,1.24574975 45.8144487,0.865813852 45.5272971,0.593514176 Z" id="Path"></path>
                <path d="M1.51347579,0.2 C1.12237374,0.190968074 0.742299948,0.331496947 0.449179014,0.593514176 C0.162360141,0.86700314 -0.000157042791,1.24807132 1.9548038e-15,1.6467433 C1.9548038e-15,1.76248276 1.9548038e-15,13.4029793 0.944134233,22.4509119 L0.944134233,22.4798467 C0.943933581,23.0439761 1.26797984,23.5567736 1.77427595,23.7935312 C2.28057206,24.0302889 2.87676724,23.947821 3.3016088,23.5822651 L18.293316,10.7062498 C18.5888356,10.4518159 18.7694523,10.0868656 18.7937286,9.69512671 C18.8180049,9.3033878 18.6838571,8.918486 18.4220616,8.62872644 C13.9739587,3.8507517 7.96965335,0.857677787 1.51347579,0.2 Z" id="Path"></path>
            </g>
            <path d="M22.999994,7 C10.7468271,7 0.000149983659,16.4511135 0.000149983659,27.2255563 L0.000149983659,30.039798 C-0.0131595943,32.4814039 0.859761219,34.8441244 2.45538333,36.685338 C7.65742417,42.6077293 15.1394865,46 22.999994,46 C30.8605015,46 38.3425638,42.6077293 43.5446046,36.685338 C45.1406886,34.8444002 46.0136766,32.4814979 45.999838,30.039798 L45.999838,27.2255563 C45.999838,16.4511135 35.2531609,7 22.999994,7 Z" id="Path" fill="#FFCA28"></path>
            <path d="M17,7.69457353 L22.9299727,14 L29,7.72537268 C25.0661743,6.7687514 20.939329,6.75815945 17,7.69457353 Z" id="Path" fill="#FFA000"></path>
            <circle id="Oval" fill="#6D4C41" cx="14.5" cy="23.5" r="2.5"></circle>
            <circle id="Oval" fill="#6D4C41" cx="31.5" cy="23.5" r="2.5"></circle>
            <path d="M30.690925,32.5643135 C30.4219312,32.207437 30.0141931,31.9997374 29.5831133,32.0000002 L15.4167242,32.0000002 C14.9867445,31.9999769 14.5800261,32.2068478 14.3111512,32.5623325 C14.0422764,32.9178172 13.9403491,33.3834367 14.0340846,33.828015 C14.9264795,38.0214186 18.4424065,41 22.4999188,41 C26.5574311,41 30.0733581,38.0214186 30.9657529,33.828015 C31.0595116,33.384424 30.9584477,32.9197167 30.690925,32.5643135 Z" id="Path" fill="#F44336"></path>
        </g>
    </g>
</svg>